<?xml version="1.0" encoding="UTF-8"?>
<svg xmlns="http://www.w3.org/2000/svg" style="stroke-dasharray:none; shape-rendering:auto; font-family:'Arial'; text-rendering:auto; fill-opacity:1; color-interpolation:auto; color-rendering:auto; font-size:12; fill:black; stroke:black; image-rendering:auto; stroke-miterlimit:10; stroke-linecap:square; stroke-linejoin:miter; font-style:normal; stroke-width:1; stroke-dashoffset:0; font-weight:normal; stroke-opacity:1;" contentScriptType="text/ecmascript" preserveAspectRatio="xMidYMid meet" zoomAndPan="magnify" version="1.0" contentStyleType="text/css" xml:xlink="http://www.w3.org/1999/xlink" width="1191" height="701"><rect x="0" y="543" width="1190" height="158" ry="0" rx="0" style="stroke:#000000; fill:#82B0B7" /><g componentSequence="4"><text x="-622" y="7" transform="rotate(270)" text-anchor="middle" style="font-weight:bold;font-size:10px;stroke:none; fill:#434343"><tspan dy="14" x="-622">Aprovador</tspan></text></g><rect x="0" y="379" width="1191" height="165" ry="0" rx="0" style="stroke:#000000; fill:#FFA8A8" /><g componentSequence="1"><text x="-461" y="7" transform="rotate(270)" text-anchor="middle" style="font-weight:bold;font-size:10px;stroke:none; fill:#434343"><tspan dy="14" x="-461">Elaborador</tspan></text></g><rect x="0" y="14" width="1191" height="165" ry="0" rx="0" style="stroke:#000000; fill:#869FBD" /><g componentSequence="3"><text x="-96" y="7" transform="rotate(270)" text-anchor="middle" style="font-weight:bold;font-size:10px;stroke:none; fill:#434343"><tspan dy="14" x="-96">Solicitante</tspan></text></g><rect x="0" y="174" width="1191" height="218" ry="0" rx="0" style="stroke:#000000; fill:#81CC8C" /><g componentSequence="2"><text x="-283" y="7" transform="rotate(270)" text-anchor="middle" style="font-weight:bold;font-size:10px;stroke:none; fill:#434343"><tspan dy="14" x="-283">Administrador - Gestão Qualidade</tspan></text></g><g sequence="4"><ellipse cx="97" cy="90" rx="17" ry="17" stroke-width="1" style="fill:url(#linearGradient66FF6696FF96B6FFB6_962634733);" stroke="336633" /></g><g sequence="9"><rect x="170" y="246" width="106" height="70" ry="5" rx="5" style="fill:url(#linearGradientF8FBFEEDF5FCDEEDFAD4E7F8E2E5E9_933710513);" stroke="191970" /></g><g componentSequence="9"><text x="223" y="261" text-anchor="middle" style="font-weight:bold;font-size:10px;stroke:none; fill:#333399"><tspan dy="14" x="223">Analisar</tspan><tspan dy="14" x="223">solicitação</tspan></text></g><g sequence="23"><polygon points=" 360 253 390 223 420 253 390 283 360 253" style="fill:url(#linearGradientFAFBFCFFFFCC_865650845);" stroke="000000" /></g><g componentSequence="23"><text x="390" y="293" text-anchor="middle" style="font-weight:bold;font-size:10px;stroke:none; fill:#333399"><tspan dy="14" x="390">Encamin</tspan><tspan dy="14" x="390">har</tspan><tspan dy="14" x="390">solici...</tspan></text></g><g sequence="29"><rect x="830" y="596" width="106" height="70" ry="5" rx="5" style="fill:url(#linearGradientF8FBFEEDF5FCDEEDFAD4E7F8E2E5E9_1989820554);" stroke="191970" /></g><g componentSequence="29"><text x="883" y="611" text-anchor="middle" style="font-weight:bold;font-size:10px;stroke:none; fill:#333399"><tspan dy="14" x="883">Aprovar</tspan><tspan dy="14" x="883">documento</tspan></text></g><g sequence="31"><rect x="980" y="246" width="106" height="70" ry="5" rx="5" style="fill:url(#linearGradientF8FBFEEDF5FCDEEDFAD4E7F8E2E5E9_1247410815);" stroke="191970" /></g><g componentSequence="31"><text x="1033" y="261" text-anchor="middle" style="font-weight:bold;font-size:10px;stroke:none; fill:#333399"><tspan dy="14" x="1033">Publicar</tspan><tspan dy="14" x="1033">documento</tspan></text></g><g sequence="61"><ellipse cx="1157" cy="281" rx="17" ry="17" stroke-width="3" style="fill:url(#linearGradientFF6666FF9696FFB6B6_1202115399);" stroke="993333" /></g><g sequence="100"><rect x="670" y="246" width="106" height="70" ry="5" rx="5" style="fill:url(#linearGradientF8FBFEEDF5FCDEEDFAD4E7F8E2E5E9_848246542);" stroke="191970" /></g><g componentSequence="100"><text x="723" y="261" text-anchor="middle" style="font-weight:bold;font-size:10px;stroke:none; fill:#333399"><tspan dy="14" x="723">Analisar</tspan><tspan dy="14" x="723">documento</tspan></text></g><g sequence="103"><rect x="480" y="429" width="106" height="70" ry="5" rx="5" style="fill:url(#linearGradientF8FBFEEDF5FCDEEDFAD4E7F8E2E5E9_381009861);" stroke="191970" /></g><g componentSequence="103"><text x="533" y="444" text-anchor="middle" style="font-weight:bold;font-size:10px;stroke:none; fill:#333399"><tspan dy="14" x="533">Ajustar</tspan><tspan dy="14" x="533">documento</tspan></text></g><g sequence="106"><polygon points=" 1000 603 1030 573 1060 603 1030 633 1000 603" style="fill:url(#linearGradientFAFBFCFFFFCC_322577774);" stroke="000000" /></g><g componentSequence="106"><text x="1030" y="643" text-anchor="middle" style="font-weight:bold;font-size:10px;stroke:none; fill:#333399"><tspan dy="14" x="1030">Aprovad</tspan><tspan dy="14" x="1030">ores</tspan><tspan dy="14" x="1030">adicio...</tspan></text></g><g sequence="119"><ellipse cx="517" cy="280" rx="17" ry="17" stroke-width="3" style="fill:url(#linearGradientFF6666FF9696FFB6B6_1660412069);" stroke="993333" /></g><g sequence="124"><polygon points=" 850 260 880 230 910 260 880 290 850 260" style="fill:url(#linearGradientFAFBFCFFFFCC_697015474);" stroke="000000" /></g><g componentSequence="124"><text x="880" y="300" text-anchor="middle" style="font-weight:bold;font-size:10px;stroke:none; fill:#333399"><tspan dy="14" x="880">Encamin</tspan><tspan dy="14" x="880">hamento</tspan></text></g><g componentSequence="62"><text x="1123" y="281" style="font-size:10px;font-weight:none;stroke:none; fill:#333399" text-anchor="left" /></g><g componentSequence="107"><text x="978" y="631" style="font-size:10px;font-weight:none;stroke:none; fill:#333399" text-anchor="left" /></g><g componentSequence="108"><text x="1041" y="444" style="font-size:10px;font-weight:none;stroke:none; fill:#333399" text-anchor="left" /></g><g componentSequence="110"><text x="978" y="631" style="font-size:10px;font-weight:none;stroke:none; fill:#333399" text-anchor="left" /></g><g componentSequence="116"><text x="106" y="230" style="font-size:10px;font-weight:none;stroke:none; fill:#333399" text-anchor="left" /></g><g componentSequence="117"><text x="328" y="281" style="font-size:10px;font-weight:none;stroke:none; fill:#333399" text-anchor="left" /></g><g componentSequence="118"><text x="328" y="90" style="font-size:10px;font-weight:none;stroke:none; fill:#333399" text-anchor="left"><tspan dy="14" x="328">Retornar</tspan></text></g><g componentSequence="120"><text x="430" y="266" style="font-size:10px;font-weight:none;stroke:none; fill:#333399" text-anchor="left"><tspan dy="14" x="430">Finalizar</tspan></text></g><g componentSequence="125"><text x="823" y="281" style="font-size:10px;font-weight:none;stroke:none; fill:#333399" text-anchor="left" /></g><g componentSequence="126"><text x="891" y="464" style="font-size:10px;font-weight:none;stroke:none; fill:#333399" text-anchor="left" /></g><g componentSequence="127"><text x="652" y="184" style="font-size:10px;font-weight:none;stroke:none; fill:#333399" text-anchor="left" /></g><g componentSequence="128"><text x="420" y="466" style="font-size:10px;font-weight:none;stroke:none; fill:#333399" text-anchor="left"><tspan dy="14" x="420">Elaborar</tspan></text></g><g componentSequence="129"><text x="732" y="458" style="font-size:10px;font-weight:none;stroke:none; fill:#333399" text-anchor="left" /></g><g componentSequence="131"><text x="445" y="675" style="font-size:10px;font-weight:none;stroke:none; fill:#333399" text-anchor="left" /></g><path style="fill:none; stroke:#000000;stroke-width:1" d="M97.0 107.0 L96.0 280.0 L169.0 280.0" /><polygon style="fill:#000000; stroke:#000000;" points=" 159 275 169 280 159 285 161 280" /><path style="fill:none; stroke:#000000;stroke-width:1" d="M389.0 222.0 L389.0 90.0 L115.0 90.0" /><polygon style="fill:#000000; stroke:#000000;" points=" 125 95 115 90 125 85 123 90" /><path style="fill:none; stroke:#000000;stroke-width:1" d="M276.0 281.0 L359.0 281.0" /><polygon style="fill:#000000; stroke:#000000;" points=" 349 276 359 281 349 286 351 281" /><path style="fill:none; stroke:#000000;stroke-width:1" d="M999.0 655.0 L974.0 675.0 L222.0 675.0 L222.0 316.0" /><polygon style="fill:#000000; stroke:#000000;" points=" 217 326 222 316 227 326 222 324" /><path style="fill:none; stroke:#000000;stroke-width:1" d="M420.0 280.0 L500.0 280.0" /><polygon style="fill:#000000; stroke:#000000;" points=" 490 275 500 280 490 285 492 280" /><path style="fill:none; stroke:#000000;stroke-width:1" d="M389.0 339.0 L389.0 463.0 L479.0 463.0" /><polygon style="fill:#000000; stroke:#000000;" points=" 469 458 479 463 469 468 471 463" /><path style="fill:none; stroke:#000000;stroke-width:1" d="M936.0 631.0 L999.0 631.0" /><polygon style="fill:#000000; stroke:#000000;" points=" 989 626 999 631 989 636 991 631" /><path style="fill:none; stroke:#000000;stroke-width:1" d="M999.0 631.0 L936.0 631.0" /><polygon style="fill:#000000; stroke:#000000;" points=" 946 636 936 631 946 626 944 631" /><path style="fill:none; stroke:#000000;stroke-width:1" d="M880.0 332.0 L882.0 595.0" /><polygon style="fill:#000000; stroke:#000000;" points=" 887 585 882 595 877 585 882 587" /><path style="fill:none; stroke:#000000;stroke-width:1" d="M1086.0 281.0 L1139.0 281.0" /><polygon style="fill:#000000; stroke:#000000;" points=" 1129 276 1139 281 1129 286 1131 281" /><path style="fill:none; stroke:#000000;stroke-width:1" d="M1030.0 572.0 L1032.0 316.0" /><polygon style="fill:#000000; stroke:#000000;" points=" 1027 326 1032 316 1037 326 1032 324" /><path style="fill:none; stroke:#000000;stroke-width:1" d="M776.0 281.0 L849.0 281.0" /><polygon style="fill:#000000; stroke:#000000;" points=" 839 276 849 281 839 286 841 281" /><path style="fill:none; stroke:#000000;stroke-width:1" d="M586.0 463.0 L722.0 463.0 L722.0 316.0" /><polygon style="fill:#000000; stroke:#000000;" points=" 717 326 722 316 727 326 722 324" /><path style="fill:none; stroke:#000000;stroke-width:1" d="M880.0 229.0 L880.0 184.0 L612.0 184.0 L543.0 428.0" /><polygon style="fill:#000000; stroke:#000000;" points=" 551 420 543 428 541 417 545 420" /><defs><linearGradient xmlns:xlink="http://www.w3.org/1999/xlink" xlink:href="#linearGradient66FF6696FF96B6FFB6" id="linearGradient66FF6696FF96B6FFB6_962634733" x1="0" y1="73.0" x2="0" y2="108.0" gradientUnits="userSpaceOnUse" xlink:type="simple" xlink:actuate="onLoad" xlink:show="other" /><linearGradient id="linearGradient66FF6696FF96B6FFB6"><stop style="stop-color:#66FF66;stop-opacity:1;" offset="0.0" id="stop66FF66" /><stop style="stop-color:#96FF96;stop-opacity:1;" offset="0.5" id="stop96FF96" /><stop style="stop-color:#B6FFB6;stop-opacity:1;" offset="1.0" id="stopB6FFB6" /></linearGradient><linearGradient xmlns:xlink="http://www.w3.org/1999/xlink" xlink:href="#linearGradientF8FBFEEDF5FCDEEDFAD4E7F8E2E5E9" id="linearGradientF8FBFEEDF5FCDEEDFAD4E7F8E2E5E9_933710513" x1="0" y1="246.0" x2="0" y2="352.0" gradientUnits="userSpaceOnUse" xlink:type="simple" xlink:actuate="onLoad" xlink:show="other" /><linearGradient id="linearGradientF8FBFEEDF5FCDEEDFAD4E7F8E2E5E9"><stop style="stop-color:#F8FBFE;stop-opacity:1;" offset="0.0" id="stopF8FBFE" /><stop style="stop-color:#EDF5FC;stop-opacity:1;" offset="0.25" id="stopEDF5FC" /><stop style="stop-color:#DEEDFA;stop-opacity:1;" offset="0.5" id="stopDEEDFA" /><stop style="stop-color:#D4E7F8;stop-opacity:1;" offset="0.75" id="stopD4E7F8" /><stop style="stop-color:#E2E5E9;stop-opacity:1;" offset="1.0" id="stopE2E5E9" /></linearGradient><linearGradient xmlns:xlink="http://www.w3.org/1999/xlink" xlink:href="#linearGradientFAFBFCFFFFCC" id="linearGradientFAFBFCFFFFCC_865650845" x1="0" y1="223.0" x2="0" y2="283.0" gradientUnits="userSpaceOnUse" xlink:type="simple" xlink:actuate="onLoad" xlink:show="other" /><linearGradient id="linearGradientFAFBFCFFFFCC"><stop style="stop-color:#FAFBFC;stop-opacity:1;" offset="0.0" id="stopFAFBFC" /><stop style="stop-color:#FFFFCC;stop-opacity:1;" offset="1.0" id="stopFFFFCC" /></linearGradient><linearGradient xmlns:xlink="http://www.w3.org/1999/xlink" xlink:href="#linearGradientF8FBFEEDF5FCDEEDFAD4E7F8E2E5E9" id="linearGradientF8FBFEEDF5FCDEEDFAD4E7F8E2E5E9_1989820554" x1="0" y1="596.0" x2="0" y2="702.0" gradientUnits="userSpaceOnUse" xlink:type="simple" xlink:actuate="onLoad" xlink:show="other" /><linearGradient xmlns:xlink="http://www.w3.org/1999/xlink" xlink:href="#linearGradientF8FBFEEDF5FCDEEDFAD4E7F8E2E5E9" id="linearGradientF8FBFEEDF5FCDEEDFAD4E7F8E2E5E9_1247410815" x1="0" y1="246.0" x2="0" y2="352.0" gradientUnits="userSpaceOnUse" xlink:type="simple" xlink:actuate="onLoad" xlink:show="other" /><linearGradient xmlns:xlink="http://www.w3.org/1999/xlink" xlink:href="#linearGradientFF6666FF9696FFB6B6" id="linearGradientFF6666FF9696FFB6B6_1202115399" x1="0" y1="264.0" x2="0" y2="299.0" gradientUnits="userSpaceOnUse" xlink:type="simple" xlink:actuate="onLoad" xlink:show="other" /><linearGradient id="linearGradientFF6666FF9696FFB6B6"><stop style="stop-color:#FF6666;stop-opacity:1;" offset="0.0" id="stopFF6666" /><stop style="stop-color:#FF9696;stop-opacity:1;" offset="0.5" id="stopFF9696" /><stop style="stop-color:#FFB6B6;stop-opacity:1;" offset="1.0" id="stopFFB6B6" /></linearGradient><linearGradient xmlns:xlink="http://www.w3.org/1999/xlink" xlink:href="#linearGradientF8FBFEEDF5FCDEEDFAD4E7F8E2E5E9" id="linearGradientF8FBFEEDF5FCDEEDFAD4E7F8E2E5E9_848246542" x1="0" y1="246.0" x2="0" y2="352.0" gradientUnits="userSpaceOnUse" xlink:type="simple" xlink:actuate="onLoad" xlink:show="other" /><linearGradient xmlns:xlink="http://www.w3.org/1999/xlink" xlink:href="#linearGradientF8FBFEEDF5FCDEEDFAD4E7F8E2E5E9" id="linearGradientF8FBFEEDF5FCDEEDFAD4E7F8E2E5E9_381009861" x1="0" y1="429.0" x2="0" y2="535.0" gradientUnits="userSpaceOnUse" xlink:type="simple" xlink:actuate="onLoad" xlink:show="other" /><linearGradient xmlns:xlink="http://www.w3.org/1999/xlink" xlink:href="#linearGradientFAFBFCFFFFCC" id="linearGradientFAFBFCFFFFCC_322577774" x1="0" y1="573.0" x2="0" y2="633.0" gradientUnits="userSpaceOnUse" xlink:type="simple" xlink:actuate="onLoad" xlink:show="other" /><linearGradient xmlns:xlink="http://www.w3.org/1999/xlink" xlink:href="#linearGradientFF6666FF9696FFB6B6" id="linearGradientFF6666FF9696FFB6B6_1660412069" x1="0" y1="263.0" x2="0" y2="298.0" gradientUnits="userSpaceOnUse" xlink:type="simple" xlink:actuate="onLoad" xlink:show="other" /><linearGradient xmlns:xlink="http://www.w3.org/1999/xlink" xlink:href="#linearGradientFAFBFCFFFFCC" id="linearGradientFAFBFCFFFFCC_697015474" x1="0" y1="230.0" x2="0" y2="290.0" gradientUnits="userSpaceOnUse" xlink:type="simple" xlink:actuate="onLoad" xlink:show="other" /></defs></svg>
