<?xml version="1.0" encoding="UTF-8"?>
<svg xmlns="http://www.w3.org/2000/svg" style="stroke-dasharray:none; shape-rendering:auto; font-family:'Arial'; text-rendering:auto; fill-opacity:1; color-interpolation:auto; color-rendering:auto; font-size:12; fill:black; stroke:black; image-rendering:auto; stroke-miterlimit:10; stroke-linecap:square; stroke-linejoin:miter; font-style:normal; stroke-width:1; stroke-dashoffset:0; font-weight:normal; stroke-opacity:1;" contentScriptType="text/ecmascript" preserveAspectRatio="xMidYMid meet" zoomAndPan="magnify" version="1.0" contentStyleType="text/css" xml:xlink="http://www.w3.org/1999/xlink" width="1191" height="494"><rect x="0" y="178" width="1191" height="153" ry="0" rx="0" style="stroke:#000000; fill:#81CC8C" /><g componentSequence="3"><text x="-254" y="7" transform="rotate(270)" text-anchor="middle" style="font-weight:bold;font-size:10px;stroke:none; fill:#434343"><tspan dy="14" x="-254">Aprovador</tspan></text></g><rect x="0" y="329" width="1191" height="165" ry="0" rx="0" style="stroke:#000000; fill:#FFA8A8" /><g componentSequence="1"><text x="-411" y="7" transform="rotate(270)" text-anchor="middle" style="font-weight:bold;font-size:10px;stroke:none; fill:#434343"><tspan dy="14" x="-411">Publicador</tspan></text></g><rect x="0" y="14" width="1191" height="165" ry="0" rx="0" style="stroke:#000000; fill:#869FBD" /><g componentSequence="2"><text x="-96" y="7" transform="rotate(270)" text-anchor="middle" style="font-weight:bold;font-size:10px;stroke:none; fill:#434343"><tspan dy="14" x="-96">Solicitante</tspan></text></g><g sequence="4"><ellipse cx="97" cy="90" rx="17" ry="17" stroke-width="1" style="fill:url(#linearGradient66FF6696FF96B6FFB6_1119453129);" stroke="336633" /></g><g sequence="7"><rect x="297" y="200" width="106" height="70" ry="5" rx="5" style="fill:url(#linearGradientF8FBFEEDF5FCDEEDFAD4E7F8E2E5E9_1283361262);" stroke="191970" /></g><g componentSequence="7"><text x="350" y="215" text-anchor="middle" style="font-weight:bold;font-size:10px;stroke:none; fill:#333399"><tspan dy="14" x="350">Analisar a</tspan><tspan dy="14" x="350">solicitação</tspan></text></g><g sequence="9"><rect x="520" y="381" width="106" height="84" ry="5" rx="5" style="fill:url(#linearGradientF8FBFEEDF5FCDEEDFAD4E7F8E2E5E9_1212224697);" stroke="191970" /></g><g componentSequence="9"><text x="573" y="396" text-anchor="middle" style="font-weight:bold;font-size:10px;stroke:none; fill:#333399"><tspan dy="14" x="573">Ajustar</tspan><tspan dy="14" x="573">documento para</tspan><tspan dy="14" x="573">publicação</tspan></text></g><g sequence="23"><polygon points=" 320 62 350 32 380 62 350 92 320 62" style="fill:url(#linearGradientFAFBFCFFFFCC_222528469);" stroke="000000" /></g><g componentSequence="23"><text x="350" y="102" text-anchor="middle" style="font-weight:bold;font-size:10px;stroke:none; fill:#333399"><tspan dy="14" x="350">Encamin</tspan><tspan dy="14" x="350">har para</tspan><tspan dy="14" x="350">anális...</tspan></text></g><g sequence="27"><ellipse cx="572" cy="234" rx="17" ry="17" stroke-width="3" style="fill:url(#linearGradientFF6666FF9696FFB6B6_76407427);" stroke="993333" /></g><g sequence="29"><rect x="780" y="200" width="106" height="70" ry="5" rx="5" style="fill:url(#linearGradientF8FBFEEDF5FCDEEDFAD4E7F8E2E5E9_1015294469);" stroke="191970" /></g><g componentSequence="29"><text x="833" y="215" text-anchor="middle" style="font-weight:bold;font-size:10px;stroke:none; fill:#333399"><tspan dy="14" x="833">Aprovar</tspan><tspan dy="14" x="833">documento</tspan></text></g><g sequence="31"><rect x="900" y="388" width="106" height="70" ry="5" rx="5" style="fill:url(#linearGradientF8FBFEEDF5FCDEEDFAD4E7F8E2E5E9_2090866160);" stroke="191970" /></g><g componentSequence="31"><text x="953" y="403" text-anchor="middle" style="font-weight:bold;font-size:10px;stroke:none; fill:#333399"><tspan dy="14" x="953">Publicar</tspan><tspan dy="14" x="953">documento</tspan></text></g><g sequence="61"><ellipse cx="1083" cy="423" rx="17" ry="17" stroke-width="3" style="fill:url(#linearGradientFF6666FF9696FFB6B6_1835826330);" stroke="993333" /></g><g componentSequence="24"><text x="227" y="90" style="font-size:10px;font-weight:none;stroke:none; fill:#333399" text-anchor="left" /></g><g componentSequence="25"><text x="360" y="174" style="font-size:10px;font-weight:none;stroke:none; fill:#333399" text-anchor="left" /></g><g componentSequence="32"><text x="903" y="329" style="font-size:10px;font-weight:none;stroke:none; fill:#333399" text-anchor="left" /></g><g componentSequence="62"><text x="1046" y="423" style="font-size:10px;font-weight:none;stroke:none; fill:#333399" text-anchor="left" /></g><g componentSequence="64"><text x="643" y="113" style="font-size:10px;font-weight:none;stroke:none; fill:#333399" text-anchor="left" /></g><g componentSequence="91"><text x="467" y="325" style="font-size:10px;font-weight:none;stroke:none; fill:#333399" text-anchor="left" /></g><g componentSequence="94"><text x="489" y="234" style="font-size:10px;font-weight:none;stroke:none; fill:#333399" text-anchor="left" /></g><g componentSequence="95"><text x="582" y="316" style="font-size:10px;font-weight:none;stroke:none; fill:#333399" text-anchor="left" /></g><g componentSequence="96"><text x="177" y="227" style="font-size:10px;font-weight:none;stroke:none; fill:#333399" text-anchor="left" /></g><g componentSequence="97"><text x="139" y="480" style="font-size:10px;font-weight:none;stroke:none; fill:#333399" text-anchor="left" /></g><g componentSequence="98"><text x="369" y="422" style="font-size:10px;font-weight:none;stroke:none; fill:#333399" text-anchor="left" /></g><g componentSequence="99"><text x="815" y="422" style="font-size:10px;font-weight:none;stroke:none; fill:#333399" text-anchor="left" /></g><path style="fill:none; stroke:#000000;stroke-width:1" d="M115.0 90.0 L319.0 90.0" /><polygon style="fill:#000000; stroke:#000000;" points=" 309 85 319 90 309 95 311 90" /><path style="fill:none; stroke:#000000;stroke-width:1" d="M296.0 235.0 L171.0 235.0 L105.0 106.0" /><polygon style="fill:#000000; stroke:#000000;" points=" 105 117 105 106 114 113 109 113" /><path style="fill:none; stroke:#000000;stroke-width:1" d="M527.0 465.0 L511.0 480.0 L97.0 480.0 L97.0 108.0" /><polygon style="fill:#000000; stroke:#000000;" points=" 92 118 97 108 102 118 97 116" /><path style="fill:none; stroke:#F00000;stroke-width:1" d="M392.0 270.0 L522.0 380.0" /><polygon style="fill:#F00000; stroke:#F00000;" points=" 518 370 522 380 511 377 516 375" /><polygon style="fill:#F00000; stroke:#F00000;" points=" 396 280 392 270 403 273 398 275" /><path style="fill:none; stroke:#000000;stroke-width:1" d="M403.0 234.0 L555.0 234.0" /><polygon style="fill:#000000; stroke:#000000;" points=" 545 229 555 234 545 239 547 234" /><path style="fill:none; stroke:#000000;stroke-width:1" d="M350.0 148.0 L350.0 199.0" /><polygon style="fill:#000000; stroke:#000000;" points=" 355 189 350 199 345 189 350 191" /><path style="fill:none; stroke:#000000;stroke-width:1" d="M519.0 422.0 L350.0 422.0 L350.0 270.0" /><polygon style="fill:#000000; stroke:#000000;" points=" 345 280 350 270 355 280 350 278" /><path style="fill:none; stroke:#000000;stroke-width:1" d="M572.0 380.0 L572.0 251.0" /><polygon style="fill:#000000; stroke:#000000;" points=" 567 261 572 251 577 261 572 259" /><path style="fill:none; stroke:#F00000;stroke-width:1" d="M626.0 422.0 L832.0 422.0 L832.0 270.0" /><polygon style="fill:#F00000; stroke:#F00000;" points=" 827 280 832 270 837 280 832 278" /><polygon style="fill:#F00000; stroke:#F00000;" points=" 636 427 626 422 636 417 634 422" /><path style="fill:none; stroke:#000000;stroke-width:1" d="M380.0 90.0 L633.0 91.0 L633.0 357.0 L612.0 380.0" /><polygon style="fill:#000000; stroke:#000000;" points=" 622 376 612 380 615 369 617 374" /><path style="fill:none; stroke:#000000;stroke-width:1" d="M855.0 270.0 L930.0 387.0" /><polygon style="fill:#000000; stroke:#000000;" points=" 929 376 930 387 920 381 926 380" /><path style="fill:none; stroke:#000000;stroke-width:1" d="M1006.0 423.0 L1065.0 423.0" /><polygon style="fill:#000000; stroke:#000000;" points=" 1055 418 1065 423 1055 428 1057 423" /><defs><linearGradient xmlns:xlink="http://www.w3.org/1999/xlink" xlink:href="#linearGradient66FF6696FF96B6FFB6" id="linearGradient66FF6696FF96B6FFB6_1119453129" x1="0" y1="73.0" x2="0" y2="108.0" gradientUnits="userSpaceOnUse" xlink:type="simple" xlink:actuate="onLoad" xlink:show="other" /><linearGradient id="linearGradient66FF6696FF96B6FFB6"><stop style="stop-color:#66FF66;stop-opacity:1;" offset="0.0" id="stop66FF66" /><stop style="stop-color:#96FF96;stop-opacity:1;" offset="0.5" id="stop96FF96" /><stop style="stop-color:#B6FFB6;stop-opacity:1;" offset="1.0" id="stopB6FFB6" /></linearGradient><linearGradient xmlns:xlink="http://www.w3.org/1999/xlink" xlink:href="#linearGradientF8FBFEEDF5FCDEEDFAD4E7F8E2E5E9" id="linearGradientF8FBFEEDF5FCDEEDFAD4E7F8E2E5E9_1283361262" x1="0" y1="200.0" x2="0" y2="306.0" gradientUnits="userSpaceOnUse" xlink:type="simple" xlink:actuate="onLoad" xlink:show="other" /><linearGradient id="linearGradientF8FBFEEDF5FCDEEDFAD4E7F8E2E5E9"><stop style="stop-color:#F8FBFE;stop-opacity:1;" offset="0.0" id="stopF8FBFE" /><stop style="stop-color:#EDF5FC;stop-opacity:1;" offset="0.25" id="stopEDF5FC" /><stop style="stop-color:#DEEDFA;stop-opacity:1;" offset="0.5" id="stopDEEDFA" /><stop style="stop-color:#D4E7F8;stop-opacity:1;" offset="0.75" id="stopD4E7F8" /><stop style="stop-color:#E2E5E9;stop-opacity:1;" offset="1.0" id="stopE2E5E9" /></linearGradient><linearGradient xmlns:xlink="http://www.w3.org/1999/xlink" xlink:href="#linearGradientF8FBFEEDF5FCDEEDFAD4E7F8E2E5E9" id="linearGradientF8FBFEEDF5FCDEEDFAD4E7F8E2E5E9_1212224697" x1="0" y1="381.0" x2="0" y2="487.0" gradientUnits="userSpaceOnUse" xlink:type="simple" xlink:actuate="onLoad" xlink:show="other" /><linearGradient xmlns:xlink="http://www.w3.org/1999/xlink" xlink:href="#linearGradientFAFBFCFFFFCC" id="linearGradientFAFBFCFFFFCC_222528469" x1="0" y1="32.0" x2="0" y2="92.0" gradientUnits="userSpaceOnUse" xlink:type="simple" xlink:actuate="onLoad" xlink:show="other" /><linearGradient id="linearGradientFAFBFCFFFFCC"><stop style="stop-color:#FAFBFC;stop-opacity:1;" offset="0.0" id="stopFAFBFC" /><stop style="stop-color:#FFFFCC;stop-opacity:1;" offset="1.0" id="stopFFFFCC" /></linearGradient><linearGradient xmlns:xlink="http://www.w3.org/1999/xlink" xlink:href="#linearGradientFF6666FF9696FFB6B6" id="linearGradientFF6666FF9696FFB6B6_76407427" x1="0" y1="217.0" x2="0" y2="252.0" gradientUnits="userSpaceOnUse" xlink:type="simple" xlink:actuate="onLoad" xlink:show="other" /><linearGradient id="linearGradientFF6666FF9696FFB6B6"><stop style="stop-color:#FF6666;stop-opacity:1;" offset="0.0" id="stopFF6666" /><stop style="stop-color:#FF9696;stop-opacity:1;" offset="0.5" id="stopFF9696" /><stop style="stop-color:#FFB6B6;stop-opacity:1;" offset="1.0" id="stopFFB6B6" /></linearGradient><linearGradient xmlns:xlink="http://www.w3.org/1999/xlink" xlink:href="#linearGradientF8FBFEEDF5FCDEEDFAD4E7F8E2E5E9" id="linearGradientF8FBFEEDF5FCDEEDFAD4E7F8E2E5E9_1015294469" x1="0" y1="200.0" x2="0" y2="306.0" gradientUnits="userSpaceOnUse" xlink:type="simple" xlink:actuate="onLoad" xlink:show="other" /><linearGradient xmlns:xlink="http://www.w3.org/1999/xlink" xlink:href="#linearGradientF8FBFEEDF5FCDEEDFAD4E7F8E2E5E9" id="linearGradientF8FBFEEDF5FCDEEDFAD4E7F8E2E5E9_2090866160" x1="0" y1="388.0" x2="0" y2="494.0" gradientUnits="userSpaceOnUse" xlink:type="simple" xlink:actuate="onLoad" xlink:show="other" /><linearGradient xmlns:xlink="http://www.w3.org/1999/xlink" xlink:href="#linearGradientFF6666FF9696FFB6B6" id="linearGradientFF6666FF9696FFB6B6_1835826330" x1="0" y1="406.0" x2="0" y2="441.0" gradientUnits="userSpaceOnUse" xlink:type="simple" xlink:actuate="onLoad" xlink:show="other" /></defs></svg>
