<?xml version="1.0" encoding="UTF-8"?>
<svg xmlns="http://www.w3.org/2000/svg" style="stroke-dasharray:none; shape-rendering:auto; font-family:'Arial'; text-rendering:auto; fill-opacity:1; color-interpolation:auto; color-rendering:auto; font-size:12; fill:black; stroke:black; image-rendering:auto; stroke-miterlimit:10; stroke-linecap:square; stroke-linejoin:miter; font-style:normal; stroke-width:1; stroke-dashoffset:0; font-weight:normal; stroke-opacity:1;" contentScriptType="text/ecmascript" preserveAspectRatio="xMidYMid meet" zoomAndPan="magnify" version="1.0" contentStyleType="text/css" xml:xlink="http://www.w3.org/1999/xlink" width="1191" height="701"><rect x="0" y="379" width="1191" height="165" ry="0" rx="0" style="stroke:#000000; fill:#FFA8A8" /><g componentSequence="3"><text x="-461" y="7" transform="rotate(270)" text-anchor="middle" style="font-weight:bold;font-size:10px;stroke:none; fill:#434343"><tspan dy="14" x="-461">Elaborador</tspan></text></g><rect x="0" y="543" width="1190" height="158" ry="0" rx="0" style="stroke:#000000; fill:#82B0B7" /><g componentSequence="4"><text x="-622" y="7" transform="rotate(270)" text-anchor="middle" style="font-weight:bold;font-size:10px;stroke:none; fill:#434343"><tspan dy="14" x="-622">Aprovador</tspan></text></g><rect x="0" y="174" width="1191" height="218" ry="0" rx="0" style="stroke:#000000; fill:#81CC8C" /><g componentSequence="1"><text x="-283" y="7" transform="rotate(270)" text-anchor="middle" style="font-weight:bold;font-size:10px;stroke:none; fill:#434343"><tspan dy="14" x="-283">Administrador - Gestão Qualidade</tspan></text></g><rect x="0" y="14" width="1191" height="165" ry="0" rx="0" style="stroke:#000000; fill:#869FBD" /><g componentSequence="2"><text x="-96" y="7" transform="rotate(270)" text-anchor="middle" style="font-weight:bold;font-size:10px;stroke:none; fill:#434343"><tspan dy="14" x="-96">Solicitante</tspan></text></g><g sequence="4"><ellipse cx="97" cy="90" rx="17" ry="17" stroke-width="1" style="fill:url(#linearGradient66FF6696FF96B6FFB6_341130848);" stroke="336633" /></g><g sequence="9"><rect x="170" y="246" width="106" height="70" ry="5" rx="5" style="fill:url(#linearGradientF8FBFEEDF5FCDEEDFAD4E7F8E2E5E9_445825690);" stroke="191970" /></g><g componentSequence="9"><text x="223" y="261" text-anchor="middle" style="font-weight:bold;font-size:10px;stroke:none; fill:#333399"><tspan dy="14" x="223">Analisar</tspan><tspan dy="14" x="223">solicitação</tspan></text></g><g sequence="23"><polygon points=" 360 253 390 223 420 253 390 283 360 253" style="fill:url(#linearGradientFAFBFCFFFFCC_514675984);" stroke="000000" /></g><g componentSequence="23"><text x="390" y="293" text-anchor="middle" style="font-weight:bold;font-size:10px;stroke:none; fill:#333399"><tspan dy="14" x="390">Encamin</tspan><tspan dy="14" x="390">har</tspan><tspan dy="14" x="390">solici...</tspan></text></g><g sequence="29"><rect x="830" y="589" width="106" height="70" ry="5" rx="5" style="fill:url(#linearGradientF8FBFEEDF5FCDEEDFAD4E7F8E2E5E9_1538246817);" stroke="191970" /></g><g componentSequence="29"><text x="883" y="604" text-anchor="middle" style="font-weight:bold;font-size:10px;stroke:none; fill:#333399"><tspan dy="14" x="883">Aprovar</tspan><tspan dy="14" x="883">documento</tspan></text></g><g sequence="31"><rect x="980" y="247" width="106" height="70" ry="5" rx="5" style="fill:url(#linearGradientF8FBFEEDF5FCDEEDFAD4E7F8E2E5E9_1723091850);" stroke="191970" /></g><g componentSequence="31"><text x="1033" y="262" text-anchor="middle" style="font-weight:bold;font-size:10px;stroke:none; fill:#333399"><tspan dy="14" x="1033">Publicar</tspan><tspan dy="14" x="1033">documento</tspan></text></g><g sequence="61"><ellipse cx="1157" cy="281" rx="17" ry="17" stroke-width="3" style="fill:url(#linearGradientFF6666FF9696FFB6B6_1782502356);" stroke="993333" /></g><g sequence="100"><rect x="670" y="247" width="106" height="70" ry="5" rx="5" style="fill:url(#linearGradientF8FBFEEDF5FCDEEDFAD4E7F8E2E5E9_516886102);" stroke="191970" /></g><g componentSequence="100"><text x="723" y="262" text-anchor="middle" style="font-weight:bold;font-size:10px;stroke:none; fill:#333399"><tspan dy="14" x="723">Pré-aprovar</tspan><tspan dy="14" x="723">documento</tspan></text></g><g sequence="103"><rect x="480" y="429" width="106" height="70" ry="5" rx="5" style="fill:url(#linearGradientF8FBFEEDF5FCDEEDFAD4E7F8E2E5E9_998258670);" stroke="191970" /></g><g componentSequence="103"><text x="533" y="444" text-anchor="middle" style="font-weight:bold;font-size:10px;stroke:none; fill:#333399"><tspan dy="14" x="533">Ajustar</tspan><tspan dy="14" x="533">documento</tspan></text></g><g sequence="106"><polygon points=" 1000 603 1030 573 1060 603 1030 633 1000 603" style="fill:url(#linearGradientFAFBFCFFFFCC_2142028559);" stroke="000000" /></g><g componentSequence="106"><text x="1030" y="643" text-anchor="middle" style="font-weight:bold;font-size:10px;stroke:none; fill:#333399"><tspan dy="14" x="1030">Aprovad</tspan><tspan dy="14" x="1030">ores</tspan><tspan dy="14" x="1030">adicio...</tspan></text></g><g sequence="119"><ellipse cx="517" cy="281" rx="17" ry="17" stroke-width="3" style="fill:url(#linearGradientFF6666FF9696FFB6B6_1670385501);" stroke="993333" /></g><g sequence="124"><polygon points=" 850 261 880 231 910 261 880 291 850 261" style="fill:url(#linearGradientFAFBFCFFFFCC_97190087);" stroke="000000" /></g><g componentSequence="124"><text x="880" y="301" text-anchor="middle" style="font-weight:bold;font-size:10px;stroke:none; fill:#333399"><tspan dy="14" x="880">Encamin</tspan><tspan dy="14" x="880">hamento</tspan></text></g><g sequence="133"><polygon points=" 67 253 97 223 127 253 97 283 67 253" style="fill:url(#linearGradientFAFBFCFFFFCC_1070491863);" stroke="000000" /></g><g componentSequence="133"><text x="97" y="293" text-anchor="middle" style="font-weight:bold;font-size:10px;stroke:none; fill:#333399"><tspan dy="14" x="97">Docume</tspan><tspan dy="14" x="97">nto</tspan><tspan dy="14" x="97">ajust...</tspan></text></g><g sequence="136"><ellipse cx="97" cy="446" rx="17" ry="17" stroke-width="1" style="fill:url(#linearGradientFFFF66FFFF96FFFFB6_652439706);" stroke="999900" /></g><g sequence="136"><polygon points=" 83 439 98 439 98 432 113 447 98 462 98 455 83 455" style="stroke:none; fill:#999900" /></g><g sequence="137"><ellipse cx="722" cy="497" rx="17" ry="17" stroke-width="1" style="fill:url(#linearGradientFFFF66FFFF96FFFFB6_1172994556);" stroke="999900" /></g><g sequence="137"><polygon points=" 708 490 723 490 723 483 738 498 723 513 723 506 708 506" style="stroke:#999900; fill:none" /></g><g componentSequence="62"><text x="1123" y="281" style="font-size:10px;font-weight:none;stroke:none; fill:#333399" text-anchor="left" /></g><g componentSequence="107"><text x="978" y="628" style="font-size:10px;font-weight:none;stroke:none; fill:#333399" text-anchor="left" /></g><g componentSequence="108"><text x="1041" y="445" style="font-size:10px;font-weight:none;stroke:none; fill:#333399" text-anchor="left" /></g><g componentSequence="110"><text x="978" y="628" style="font-size:10px;font-weight:none;stroke:none; fill:#333399" text-anchor="left" /></g><g componentSequence="117"><text x="328" y="281" style="font-size:10px;font-weight:none;stroke:none; fill:#333399" text-anchor="left" /></g><g componentSequence="118"><text x="328" y="90" style="font-size:10px;font-weight:none;stroke:none; fill:#333399" text-anchor="left"><tspan dy="14" x="328">Retornar</tspan></text></g><g componentSequence="120"><text x="450" y="285" style="font-size:10px;font-weight:none;stroke:none; fill:#333399" text-anchor="left"><tspan dy="14" x="450">Finalizar</tspan></text></g><g componentSequence="125"><text x="823" y="282" style="font-size:10px;font-weight:none;stroke:none; fill:#333399" text-anchor="left" /></g><g componentSequence="126"><text x="891" y="461" style="font-size:10px;font-weight:none;stroke:none; fill:#333399" text-anchor="left" /></g><g componentSequence="127"><text x="633" y="214" style="font-size:10px;font-weight:none;stroke:none; fill:#333399" text-anchor="left" /></g><g componentSequence="128"><text x="399" y="446" style="font-size:10px;font-weight:none;stroke:none; fill:#333399" text-anchor="left"><tspan dy="14" x="399">Elaborar</tspan></text></g><g componentSequence="129"><text x="732" y="458" style="font-size:10px;font-weight:none;stroke:none; fill:#333399" text-anchor="left" /></g><g componentSequence="131"><text x="445" y="675" style="font-size:10px;font-weight:none;stroke:none; fill:#333399" text-anchor="left" /></g><g componentSequence="132"><text x="692" y="195" style="font-size:10px;font-weight:none;stroke:none; fill:#333399" text-anchor="left" /></g><g componentSequence="134"><text x="107" y="165" style="font-size:10px;font-weight:none;stroke:none; fill:#333399" text-anchor="left" /></g><g componentSequence="135"><text x="158" y="281" style="font-size:10px;font-weight:none;stroke:none; fill:#333399" text-anchor="left" /></g><g componentSequence="138"><text x="732" y="398" style="font-size:10px;font-weight:none;stroke:none; fill:#333399" text-anchor="left" /></g><g componentSequence="139"><text x="107" y="384" style="font-size:10px;font-weight:none;stroke:none; fill:#333399" text-anchor="left" /></g><path style="fill:none; stroke:#000000;stroke-width:1" d="M97.0 108.0 L97.0 222.0" /><polygon style="fill:#000000; stroke:#000000;" points=" 102 212 97 222 92 212 97 214" /><path style="fill:none; stroke:#000000;stroke-width:1" d="M389.0 222.0 L389.0 90.0 L115.0 90.0" /><polygon style="fill:#000000; stroke:#000000;" points=" 125 95 115 90 125 85 123 90" /><path style="fill:none; stroke:#000000;stroke-width:1" d="M276.0 281.0 L359.0 281.0" /><polygon style="fill:#000000; stroke:#000000;" points=" 349 276 359 281 349 286 351 281" /><path style="fill:none; stroke:#000000;stroke-width:1" d="M999.0 655.0 L974.0 675.0 L222.0 675.0 L222.0 316.0" /><polygon style="fill:#000000; stroke:#000000;" points=" 217 326 222 316 227 326 222 324" /><path style="fill:none; stroke:#000000;stroke-width:1" d="M127.0 281.0 L169.0 281.0" /><polygon style="fill:#000000; stroke:#000000;" points=" 159 276 169 281 159 286 161 281" /><path style="fill:none; stroke:#000000;stroke-width:1" d="M420.0 281.0 L499.0 281.0" /><polygon style="fill:#000000; stroke:#000000;" points=" 489 276 499 281 489 286 491 281" /><path style="fill:none; stroke:#000000;stroke-width:1" d="M389.0 339.0 L389.0 463.0 L479.0 463.0" /><polygon style="fill:#000000; stroke:#000000;" points=" 469 458 479 463 469 468 471 463" /><path style="fill:none; stroke:#000000;stroke-width:1" d="M936.0 626.0 L999.0 629.0" /><polygon style="fill:#000000; stroke:#000000;" points=" 989 624 999 629 989 634 991 629" /><path style="fill:none; stroke:#000000;stroke-width:1" d="M999.0 629.0 L936.0 626.0" /><polygon style="fill:#000000; stroke:#000000;" points=" 946 631 936 626 946 621 944 626" /><path style="fill:none; stroke:#000000;stroke-width:1" d="M880.0 333.0 L882.0 588.0" /><polygon style="fill:#000000; stroke:#000000;" points=" 887 578 882 588 877 578 882 580" /><path style="fill:none; stroke:#000000;stroke-width:1" d="M1086.0 281.0 L1140.0 281.0" /><polygon style="fill:#000000; stroke:#000000;" points=" 1130 276 1140 281 1130 286 1132 281" /><path style="fill:none; stroke:#000000;stroke-width:1" d="M1030.0 572.0 L1032.0 317.0" /><polygon style="fill:#000000; stroke:#000000;" points=" 1027 327 1032 317 1037 327 1032 325" /><path style="fill:none; stroke:#000000;stroke-width:1" d="M776.0 282.0 L849.0 282.0" /><polygon style="fill:#000000; stroke:#000000;" points=" 839 277 849 282 839 287 841 282" /><path style="fill:none; stroke:#000000;stroke-width:1" d="M586.0 463.0 L722.0 463.0 L722.0 317.0" /><polygon style="fill:#000000; stroke:#000000;" points=" 717 327 722 317 727 327 722 325" /><path style="fill:none; stroke:#000000;stroke-width:1" d="M722.0 480.0 L722.0 317.0" /><polygon style="fill:#000000; stroke:#000000;" points=" 717 327 722 317 727 327 722 325" /><path style="fill:none; stroke:#000000;stroke-width:1" d="M849.0 244.0 L824.0 214.0 L607.0 214.0 L543.0 428.0" /><polygon style="fill:#000000; stroke:#000000;" points=" 551 420 543 428 541 417 545 420" /><path style="fill:none; stroke:#000000;stroke-width:1" d="M880.0 230.0 L880.0 195.0 L517.0 195.0 L517.0 263.0" /><polygon style="fill:#000000; stroke:#000000;" points=" 522 253 517 263 512 253 517 255" /><path style="fill:none; stroke:#000000;stroke-width:1" d="M97.0 339.0 L97.0 428.0" /><polygon style="fill:#000000; stroke:#000000;" points=" 102 418 97 428 92 418 97 420" /><defs><linearGradient xmlns:xlink="http://www.w3.org/1999/xlink" xlink:href="#linearGradient66FF6696FF96B6FFB6" id="linearGradient66FF6696FF96B6FFB6_341130848" x1="0" y1="73.0" x2="0" y2="108.0" gradientUnits="userSpaceOnUse" xlink:type="simple" xlink:actuate="onLoad" xlink:show="other" /><linearGradient id="linearGradient66FF6696FF96B6FFB6"><stop style="stop-color:#66FF66;stop-opacity:1;" offset="0.0" id="stop66FF66" /><stop style="stop-color:#96FF96;stop-opacity:1;" offset="0.5" id="stop96FF96" /><stop style="stop-color:#B6FFB6;stop-opacity:1;" offset="1.0" id="stopB6FFB6" /></linearGradient><linearGradient xmlns:xlink="http://www.w3.org/1999/xlink" xlink:href="#linearGradientF8FBFEEDF5FCDEEDFAD4E7F8E2E5E9" id="linearGradientF8FBFEEDF5FCDEEDFAD4E7F8E2E5E9_445825690" x1="0" y1="246.0" x2="0" y2="352.0" gradientUnits="userSpaceOnUse" xlink:type="simple" xlink:actuate="onLoad" xlink:show="other" /><linearGradient id="linearGradientF8FBFEEDF5FCDEEDFAD4E7F8E2E5E9"><stop style="stop-color:#F8FBFE;stop-opacity:1;" offset="0.0" id="stopF8FBFE" /><stop style="stop-color:#EDF5FC;stop-opacity:1;" offset="0.25" id="stopEDF5FC" /><stop style="stop-color:#DEEDFA;stop-opacity:1;" offset="0.5" id="stopDEEDFA" /><stop style="stop-color:#D4E7F8;stop-opacity:1;" offset="0.75" id="stopD4E7F8" /><stop style="stop-color:#E2E5E9;stop-opacity:1;" offset="1.0" id="stopE2E5E9" /></linearGradient><linearGradient xmlns:xlink="http://www.w3.org/1999/xlink" xlink:href="#linearGradientFAFBFCFFFFCC" id="linearGradientFAFBFCFFFFCC_514675984" x1="0" y1="223.0" x2="0" y2="283.0" gradientUnits="userSpaceOnUse" xlink:type="simple" xlink:actuate="onLoad" xlink:show="other" /><linearGradient id="linearGradientFAFBFCFFFFCC"><stop style="stop-color:#FAFBFC;stop-opacity:1;" offset="0.0" id="stopFAFBFC" /><stop style="stop-color:#FFFFCC;stop-opacity:1;" offset="1.0" id="stopFFFFCC" /></linearGradient><linearGradient xmlns:xlink="http://www.w3.org/1999/xlink" xlink:href="#linearGradientF8FBFEEDF5FCDEEDFAD4E7F8E2E5E9" id="linearGradientF8FBFEEDF5FCDEEDFAD4E7F8E2E5E9_1538246817" x1="0" y1="589.0" x2="0" y2="695.0" gradientUnits="userSpaceOnUse" xlink:type="simple" xlink:actuate="onLoad" xlink:show="other" /><linearGradient xmlns:xlink="http://www.w3.org/1999/xlink" xlink:href="#linearGradientF8FBFEEDF5FCDEEDFAD4E7F8E2E5E9" id="linearGradientF8FBFEEDF5FCDEEDFAD4E7F8E2E5E9_1723091850" x1="0" y1="247.0" x2="0" y2="353.0" gradientUnits="userSpaceOnUse" xlink:type="simple" xlink:actuate="onLoad" xlink:show="other" /><linearGradient xmlns:xlink="http://www.w3.org/1999/xlink" xlink:href="#linearGradientFF6666FF9696FFB6B6" id="linearGradientFF6666FF9696FFB6B6_1782502356" x1="0" y1="264.0" x2="0" y2="299.0" gradientUnits="userSpaceOnUse" xlink:type="simple" xlink:actuate="onLoad" xlink:show="other" /><linearGradient id="linearGradientFF6666FF9696FFB6B6"><stop style="stop-color:#FF6666;stop-opacity:1;" offset="0.0" id="stopFF6666" /><stop style="stop-color:#FF9696;stop-opacity:1;" offset="0.5" id="stopFF9696" /><stop style="stop-color:#FFB6B6;stop-opacity:1;" offset="1.0" id="stopFFB6B6" /></linearGradient><linearGradient xmlns:xlink="http://www.w3.org/1999/xlink" xlink:href="#linearGradientF8FBFEEDF5FCDEEDFAD4E7F8E2E5E9" id="linearGradientF8FBFEEDF5FCDEEDFAD4E7F8E2E5E9_516886102" x1="0" y1="247.0" x2="0" y2="353.0" gradientUnits="userSpaceOnUse" xlink:type="simple" xlink:actuate="onLoad" xlink:show="other" /><linearGradient xmlns:xlink="http://www.w3.org/1999/xlink" xlink:href="#linearGradientF8FBFEEDF5FCDEEDFAD4E7F8E2E5E9" id="linearGradientF8FBFEEDF5FCDEEDFAD4E7F8E2E5E9_998258670" x1="0" y1="429.0" x2="0" y2="535.0" gradientUnits="userSpaceOnUse" xlink:type="simple" xlink:actuate="onLoad" xlink:show="other" /><linearGradient xmlns:xlink="http://www.w3.org/1999/xlink" xlink:href="#linearGradientFAFBFCFFFFCC" id="linearGradientFAFBFCFFFFCC_2142028559" x1="0" y1="573.0" x2="0" y2="633.0" gradientUnits="userSpaceOnUse" xlink:type="simple" xlink:actuate="onLoad" xlink:show="other" /><linearGradient xmlns:xlink="http://www.w3.org/1999/xlink" xlink:href="#linearGradientFF6666FF9696FFB6B6" id="linearGradientFF6666FF9696FFB6B6_1670385501" x1="0" y1="264.0" x2="0" y2="299.0" gradientUnits="userSpaceOnUse" xlink:type="simple" xlink:actuate="onLoad" xlink:show="other" /><linearGradient xmlns:xlink="http://www.w3.org/1999/xlink" xlink:href="#linearGradientFAFBFCFFFFCC" id="linearGradientFAFBFCFFFFCC_97190087" x1="0" y1="231.0" x2="0" y2="291.0" gradientUnits="userSpaceOnUse" xlink:type="simple" xlink:actuate="onLoad" xlink:show="other" /><linearGradient xmlns:xlink="http://www.w3.org/1999/xlink" xlink:href="#linearGradientFAFBFCFFFFCC" id="linearGradientFAFBFCFFFFCC_1070491863" x1="0" y1="223.0" x2="0" y2="283.0" gradientUnits="userSpaceOnUse" xlink:type="simple" xlink:actuate="onLoad" xlink:show="other" /><linearGradient xmlns:xlink="http://www.w3.org/1999/xlink" xlink:href="#linearGradientFFFF66FFFF96FFFFB6" id="linearGradientFFFF66FFFF96FFFFB6_652439706" x1="0" y1="429.0" x2="0" y2="464.0" gradientUnits="userSpaceOnUse" xlink:type="simple" xlink:actuate="onLoad" xlink:show="other" /><linearGradient id="linearGradientFFFF66FFFF96FFFFB6"><stop style="stop-color:#FFFF66;stop-opacity:1;" offset="0.0" id="stopFFFF66" /><stop style="stop-color:#FFFF96;stop-opacity:1;" offset="0.5" id="stopFFFF96" /><stop style="stop-color:#FFFFB6;stop-opacity:1;" offset="1.0" id="stopFFFFB6" /></linearGradient><linearGradient xmlns:xlink="http://www.w3.org/1999/xlink" xlink:href="#linearGradientFFFF66FFFF96FFFFB6" id="linearGradientFFFF66FFFF96FFFFB6_1172994556" x1="0" y1="480.0" x2="0" y2="515.0" gradientUnits="userSpaceOnUse" xlink:type="simple" xlink:actuate="onLoad" xlink:show="other" /></defs></svg>
